<svg width="543" height="541" viewBox="0 0 543 541" fill="none" xmlns="http://www.w3.org/2000/svg">
<g filter="url(#filter0_d_9_12)">
<mask id="path-1-outside-1_9_12" maskUnits="userSpaceOnUse" x="49.9094" y="75.7026" width="436.285" height="436.285" fill="black">
<rect fill="white" x="49.9094" y="75.7026" width="436.285" height="436.285"/>
<path d="M52.0308 292.077L268.324 75.7841L484.617 292.077L268.324 508.37L52.0308 292.077Z"/>
</mask>
<path d="M52.0308 292.077L268.324 75.7841L484.617 292.077L268.324 508.37L52.0308 292.077Z" fill="url(#paint0_linear_9_12)"/>
<path d="M52.0308 292.077L268.324 75.7841L484.617 292.077L268.324 508.37L52.0308 292.077Z" fill="#FA9600" fill-opacity="0.2"/>
<path d="M268.324 508.37L266.843 509.852C267.661 510.67 268.987 510.67 269.805 509.852L268.324 508.37ZM483.136 290.596L266.843 506.889L269.805 509.852L486.099 293.559L483.136 290.596ZM269.805 506.889L53.5122 290.596L50.5493 293.559L266.843 509.852L269.805 506.889Z" fill="black" mask="url(#path-1-outside-1_9_12)"/>
</g>
<path d="M47.4982 172.464L57.0668 177.749C57.3671 178.336 57.6215 179.148 57.83 180.185C58.0265 181.215 58.0024 182.474 57.7579 183.964C57.508 185.434 56.8444 187.145 55.7671 189.096C54.8881 190.688 53.8032 192.002 52.5124 193.038C51.2163 194.056 49.7647 194.761 48.1576 195.155C46.5451 195.529 44.8242 195.563 42.9948 195.255C41.1601 194.929 39.2673 194.228 37.3165 193.15L35.2879 192.03C33.3371 190.953 31.7213 189.764 30.4405 188.463C29.1663 187.15 28.2445 185.751 27.675 184.265C27.0935 182.773 26.8877 181.222 27.0576 179.614C27.2155 177.999 27.7604 176.347 28.6923 174.66C29.796 172.661 31.0651 171.183 32.4995 170.226C33.9285 169.25 35.4556 168.719 37.0808 168.633C38.7126 168.534 40.3599 168.804 42.0227 169.441L40.1094 172.906C39.078 172.539 38.0444 172.374 37.0087 172.412C35.9796 172.437 34.9971 172.745 34.0611 173.337C33.1131 173.923 32.269 174.886 31.5288 176.226C30.8612 177.435 30.5043 178.604 30.4581 179.735C30.4118 180.865 30.643 181.945 31.1516 182.976C31.6601 184.006 32.4215 184.989 33.4358 185.924C34.4567 186.847 35.7032 187.715 37.1753 188.528L39.2398 189.668C40.7478 190.5 42.19 191.07 43.5666 191.378C44.9497 191.673 46.2419 191.723 47.4432 191.527C48.6325 191.325 49.6937 190.888 50.6269 190.216C51.5667 189.533 52.3439 188.634 52.9585 187.521C53.6393 186.289 54.0894 185.233 54.3089 184.355C54.5165 183.47 54.5956 182.733 54.5463 182.143C54.485 181.547 54.3855 181.063 54.2478 180.69L48.3953 177.458L45.0544 183.508L42.2538 181.961L47.4982 172.464Z" fill="#4B2B42"/>
<path d="M75.3423 152.942L77.9423 154.841L68.6166 167.609L66.0165 165.71L75.3423 152.942ZM44.9755 149.352L69.0883 166.963L66.7539 170.16L42.6411 152.549L44.9755 149.352ZM62.9629 146.491L65.563 148.39L57.4711 159.469L54.871 157.57L62.9629 146.491ZM53.7086 137.395L56.3252 139.306L47.1204 151.909L44.5038 149.998L53.7086 137.395Z" fill="#4B2B42"/>
<path d="M81.0964 130.244L75.9212 135.765L73.574 133.621L78.2724 128.609C79.0484 127.781 79.5866 126.927 79.887 126.047C80.1874 125.166 80.2373 124.314 80.0365 123.488C79.835 122.644 79.3703 121.88 78.6421 121.197C77.8441 120.449 77.0508 119.996 76.2622 119.838C75.473 119.66 74.6692 119.778 73.8507 120.192C73.0316 120.586 72.1732 121.261 71.2756 122.219L67.2925 126.468L86.7136 144.673L84.0068 147.56L62.2217 127.14L68.9116 120.003C69.9588 118.886 71.0085 117.996 72.0607 117.333C73.103 116.661 74.1487 116.245 75.1978 116.086C76.2463 115.907 77.2843 115.999 78.3116 116.362C79.339 116.725 80.3614 117.384 81.3788 118.338C82.2766 119.179 82.8745 120.171 83.1725 121.312C83.4606 122.444 83.4507 123.634 83.1429 124.882C82.8444 126.12 82.2504 127.344 81.3609 128.552L81.0964 130.244ZM91.1595 139.93L85.0446 146.453L84.2243 142.62L88.8104 137.728C89.6706 136.81 90.2403 135.882 90.5195 134.945C90.8081 133.997 90.822 133.083 90.5614 132.201C90.2908 131.311 89.7565 130.491 88.9585 129.743C88.1505 128.986 87.3167 128.476 86.4571 128.214C85.5974 127.951 84.7181 127.98 83.8192 128.299C82.9203 128.618 82.0127 129.266 81.0964 130.244L77.2395 134.359L74.9484 132.155L80.2218 126.529L81.6348 126.701C82.7063 125.738 83.8377 125.131 85.0289 124.879C86.2102 124.619 87.3675 124.663 88.5009 125.014C89.6436 125.354 90.6837 125.963 91.6214 126.842C92.9779 128.114 93.8446 129.488 94.2212 130.966C94.5972 132.424 94.5247 133.921 94.0037 135.456C93.4727 136.982 92.5246 138.473 91.1595 139.93Z" fill="#4B2B42"/>
<path d="M97.2607 97.0965L106.89 124.402L103.768 126.965L93.6166 96.6656L95.6295 95.0128L97.2607 97.0965ZM120.933 112.872L96.0086 98.1246L94.2823 96.119L96.2952 94.4663L124.071 110.295L120.933 112.872ZM113.522 104.654L115.579 107.158L102.613 117.803L100.557 115.299L113.522 104.654ZM86.9666 96.1287C86.5762 95.6532 86.3945 95.1302 86.4214 94.5597C86.4483 93.9892 86.7418 93.4741 87.3018 93.0143C87.8724 92.5458 88.4401 92.3538 89.0049 92.4385C89.5697 92.5231 90.0473 92.8032 90.4378 93.2787C90.8108 93.7331 90.9839 94.2455 90.957 94.816C90.9214 95.3759 90.6183 95.8901 90.0477 96.3586C89.4877 96.8184 88.9296 97.0113 88.3734 96.9372C87.8086 96.8525 87.3397 96.583 86.9666 96.1287ZM93.824 90.5515C93.4335 90.076 93.2465 89.5574 93.2629 88.9956C93.2898 88.4251 93.5885 87.9056 94.1591 87.4371C94.7192 86.9773 95.2816 86.7897 95.8464 86.8744C96.4218 86.9503 96.9047 87.2261 97.2951 87.7015C97.6681 88.1559 97.8359 88.6727 97.7984 89.2518C97.7628 89.8118 97.465 90.3216 96.905 90.7814C96.3344 91.2499 95.771 91.4471 95.2149 91.373C94.6607 91.2797 94.197 91.0059 93.824 90.5515Z" fill="#4B2B42"/>
<path d="M130.263 70.7986L133.609 68.7232L144.257 85.8896C145.438 87.795 145.998 89.644 145.935 91.4365C145.873 93.2289 145.337 94.8807 144.327 96.3916C143.322 97.8838 142 99.1379 140.362 100.154C138.643 101.221 136.891 101.872 135.108 102.11C133.329 102.328 131.64 102.057 130.041 101.295C128.454 100.525 127.069 99.1881 125.888 97.2827L115.24 80.1163L118.569 78.0517L129.216 95.2181C130.038 96.5426 130.959 97.4834 131.98 98.0405C133.002 98.5976 134.078 98.8151 135.209 98.6929C136.351 98.5635 137.503 98.1385 138.665 97.4178C139.838 96.69 140.731 95.8467 141.343 94.888C141.967 93.922 142.256 92.8578 142.211 91.6954C142.165 90.533 141.732 89.2895 140.91 87.965L130.263 70.7986Z" fill="#4B2B42"/>
<path d="M166.761 85.4332L161.076 87.9918L159.792 85.0388L165.439 82.4971C167.384 81.6218 168.823 80.4872 169.755 79.0933C170.681 77.6869 171.137 76.1022 171.123 74.3393C171.117 72.5583 170.667 70.6766 169.775 68.6943L169.026 67.0299C168.324 65.4714 167.515 64.1717 166.596 63.1307C165.672 62.0772 164.661 61.2955 163.562 60.7856C162.457 60.2633 161.283 60.0196 160.039 60.0545C158.808 60.0839 157.519 60.4015 156.173 61.0075L150.039 63.7681L148.709 60.8133L154.843 58.0527C156.626 57.2504 158.388 56.8174 160.128 56.7537C161.863 56.6776 163.513 56.9621 165.078 57.6073C166.649 58.2343 168.078 59.2105 169.364 60.5358C170.645 61.8486 171.728 63.4899 172.615 65.4598L173.347 67.0868C174.233 69.0566 174.746 70.9623 174.885 72.8038C175.019 74.6328 174.793 76.3461 174.207 77.9439C173.635 79.536 172.722 80.9736 171.471 82.2566C170.226 83.5214 168.656 84.5803 166.761 85.4332ZM150.748 59.8959L163.002 87.1249L159.393 88.7492L147.138 61.5203L150.748 59.8959Z" fill="#4B2B42"/>
<path d="M206.465 67.5491L207.412 70.6263L192.3 75.2782L191.353 72.201L206.465 67.5491ZM184.28 46.5051L193.065 75.0429L189.282 76.2074L180.497 47.6696L184.28 46.5051ZM200.405 54.9736L201.352 58.0508L188.24 62.0873L187.293 59.0101L200.405 54.9736ZM198.431 42.1488L199.385 45.2457L184.469 49.8372L183.516 46.7404L198.431 42.1488Z" fill="#4B2B42"/>
<path d="M213.08 38.4987L216.868 37.9016L230.321 60.4245L236.174 34.8588L239.982 34.2585L232.638 65.644L229.681 66.1101L213.08 38.4987ZM211.844 38.6935L215.187 38.1666L218.569 56.0693L220.382 67.5757L216.493 68.1887L211.844 38.6935ZM237.855 34.5938L241.197 34.0669L245.846 63.5622L241.957 64.1752L240.143 52.6688L237.855 34.5938Z" fill="#4B2B42"/>
<path d="M268.337 35.651L258.617 62.9238L254.577 62.9481L265.779 33.0208L268.383 33.0052L268.337 35.651ZM276.786 62.8146L266.717 35.6607L266.64 33.0157L269.244 33L280.847 62.7902L276.786 62.8146ZM276.207 51.7641L276.226 55.0043L259.451 55.1052L259.432 51.865L276.207 51.7641Z" fill="#4B2B42"/>
<path d="M316.467 36.8163L312.589 66.4227L308.644 65.9058L296.731 41.1179L293.739 63.953L289.814 63.4389L293.693 33.8325L297.618 34.3467L309.584 59.2036L312.584 36.3075L316.467 36.8163Z" fill="#4B2B42"/>
<path d="M341.6 45.392L324.896 69.041L320.999 67.9768L339.844 42.1701L342.356 42.8562L341.6 45.392ZM342.424 73.8272L340.037 44.9653L340.675 42.397L343.187 43.083L346.341 74.8968L342.424 73.8272ZM344.841 63.0288L343.988 66.1546L327.805 61.7357L328.658 58.6099L344.841 63.0288Z" fill="#4B2B42"/>
<path d="M380.922 72.8809L376.657 82.9452C376.104 83.3046 375.322 83.6417 374.313 83.9564C373.309 84.2584 372.054 84.365 370.547 84.2759C369.058 84.1796 367.288 83.6967 365.236 82.8271C363.562 82.1176 362.143 81.1746 360.978 79.998C359.832 78.8142 358.98 77.4435 358.422 75.8857C357.883 74.3206 357.671 72.6124 357.787 70.7611C357.922 68.9025 358.424 66.9473 359.293 64.8954L360.198 62.7617C361.067 60.7098 362.082 58.9796 363.244 57.5711C364.417 56.1678 365.714 55.1061 367.133 54.3859C368.557 53.653 370.078 53.2878 371.695 53.2903C373.318 53.2801 375.017 53.6511 376.792 54.4033C378.894 55.2942 380.495 56.4035 381.596 57.731C382.714 59.0514 383.401 60.5153 383.655 62.1228C383.922 63.7356 383.824 65.402 383.363 67.1219L379.718 65.5775C379.976 64.5137 380.033 63.4686 379.889 62.4423C379.757 61.4214 379.349 60.4761 378.663 59.6064C377.983 58.7241 376.937 57.9842 375.528 57.3867C374.256 56.8479 373.056 56.614 371.927 56.685C370.798 56.756 369.748 57.0977 368.775 57.7102C367.803 58.3228 366.904 59.1818 366.079 60.2874C365.267 61.3984 364.533 62.728 363.877 64.2763L362.956 66.4478C362.284 68.0339 361.867 69.5274 361.704 70.9283C361.553 72.3346 361.637 73.625 361.956 74.7996C362.28 75.9616 362.825 76.9719 363.59 77.8305C364.367 78.6945 365.341 79.3745 366.511 79.8706C367.808 80.4201 368.904 80.7585 369.801 80.886C370.702 81.0008 371.444 81.0032 372.025 80.8931C372.612 80.7705 373.083 80.6213 373.44 80.4458L376.048 74.2902L369.685 71.5935L370.933 68.6479L380.922 72.8809Z" fill="#4B2B42"/>
<path d="M403.222 98.5543L401.603 101.337L387.937 93.3832L389.557 90.6005L403.222 98.5543ZM403.649 67.9792L388.629 93.7856L385.208 91.7945L400.228 65.9881L403.649 67.9792ZM408.357 85.5737L406.738 88.3564L394.88 81.4549L396.5 78.6722L408.357 85.5737ZM416.446 75.4275L414.816 78.2279L401.328 70.3773L402.958 67.5768L416.446 75.4275Z" fill="#4B2B42"/>
<path d="M429.061 83.7199L432.068 86.0996L424.634 111.259L447.394 98.2271L450.418 100.619L422.369 116.501L420.021 114.643L429.061 83.7199ZM428.08 82.9437L430.733 85.0434L419.867 99.6678L412.639 108.802L409.551 106.359L428.08 82.9437ZM448.729 99.2833L451.383 101.383L432.854 124.798L429.766 122.355L436.995 113.221L448.729 99.2833Z" fill="#4B2B42"/>
<path d="M456.546 144.524L454.21 146.74L443.328 135.269L445.664 133.053L456.546 144.524ZM465.54 115.298L443.878 135.849L441.154 132.978L462.816 112.427L465.54 115.298ZM465.119 133.507L462.783 135.723L453.341 125.77L455.676 123.554L465.119 133.507ZM475.731 126.04L473.38 128.27L462.639 116.948L464.99 114.718L475.731 126.04Z" fill="#4B2B42"/>
<path d="M497.976 154.891L473.863 172.502L471.517 169.289L481.249 143.567L462.651 157.15L460.316 153.954L484.429 136.342L486.764 139.539L477.018 165.347L495.666 151.728L497.976 154.891Z" fill="#4B2B42"/>
<path d="M511.375 177.64L485.15 191.917L483.287 188.494L509.512 174.217L511.375 177.64ZM515.964 186.069L513.119 187.618L502.087 167.355L504.933 165.806L515.964 186.069Z" fill="#4B2B42"/>
<path d="M177 211.52V211.072H178.884C179.332 211.072 179.721 211.012 180.05 210.892C180.409 210.743 180.678 210.459 180.858 210.04C181.067 209.621 181.172 208.993 181.172 208.156V182.678C181.172 181.871 181.067 181.273 180.858 180.884C180.648 180.495 180.364 180.241 180.005 180.121C179.676 180.002 179.303 179.942 178.884 179.942H177V179.493H191.802C195.122 179.493 197.962 180.077 200.325 181.243C202.687 182.379 204.496 184.099 205.752 186.401C207.038 188.674 207.681 191.515 207.681 194.924C207.681 198.183 207.083 201.069 205.887 203.581C204.691 206.063 202.911 208.007 200.549 209.412C198.217 210.817 195.301 211.52 191.802 211.52H177ZM190.771 211.072C193.013 211.072 194.823 210.533 196.198 209.457C197.574 208.38 198.561 206.661 199.159 204.298C199.787 201.906 200.101 198.766 200.101 194.879C200.101 191.32 199.787 188.45 199.159 186.267C198.561 184.054 197.574 182.454 196.198 181.467C194.852 180.45 193.058 179.942 190.815 179.942H188.259V211.072H190.771Z" fill="#4B2B42"/>
<path d="M227.803 211.969C224.394 211.969 221.568 211.281 219.326 209.905C217.083 208.53 215.393 206.601 214.257 204.119C213.151 201.637 212.597 198.736 212.597 195.417C212.597 192.098 213.151 189.212 214.257 186.76C215.393 184.308 217.083 182.409 219.326 181.063C221.598 179.688 224.439 179 227.848 179C231.078 179 233.814 179.688 236.057 181.063C238.329 182.409 240.049 184.323 241.215 186.805C242.381 189.257 242.964 192.143 242.964 195.462C242.964 198.781 242.366 201.682 241.17 204.164C240.004 206.616 238.299 208.53 236.057 209.905C233.814 211.281 231.063 211.969 227.803 211.969ZM227.803 211.52C229.149 211.52 230.3 211.221 231.257 210.623C232.214 209.995 232.992 209.038 233.59 207.752C234.218 206.437 234.681 204.762 234.98 202.729C235.279 200.695 235.429 198.273 235.429 195.462C235.429 192.651 235.279 190.244 234.98 188.24C234.681 186.207 234.218 184.547 233.59 183.261C232.992 181.946 232.214 180.989 231.257 180.391C230.3 179.763 229.164 179.449 227.848 179.449C226.503 179.449 225.336 179.763 224.349 180.391C223.393 180.989 222.6 181.946 221.972 183.261C221.344 184.547 220.881 186.207 220.582 188.24C220.283 190.244 220.133 192.651 220.133 195.462C220.133 198.273 220.283 200.695 220.582 202.729C220.881 204.762 221.329 206.437 221.927 207.752C222.555 209.038 223.348 209.995 224.305 210.623C225.291 211.221 226.458 211.52 227.803 211.52Z" fill="#4B2B42"/>
<path d="M262.795 211.969C260.194 211.969 257.966 211.625 256.112 210.937C254.258 210.249 252.838 209.158 251.851 207.663C250.864 206.167 250.371 204.194 250.371 201.742V182.678C250.371 181.871 250.266 181.273 250.057 180.884C249.847 180.495 249.563 180.241 249.204 180.121C248.875 180.002 248.502 179.942 248.083 179.942H246.154V179.493H261.629V179.942H259.745C259.327 179.942 258.938 180.017 258.579 180.166C258.25 180.286 257.981 180.555 257.772 180.974C257.562 181.362 257.458 181.99 257.458 182.858V204.612C257.458 206.287 257.727 207.618 258.265 208.605C258.833 209.561 259.611 210.249 260.598 210.668C261.614 211.087 262.795 211.296 264.141 211.296C266.055 211.296 267.67 210.937 268.986 210.219C270.331 209.502 271.348 208.47 272.036 207.124C272.753 205.749 273.112 204.134 273.112 202.28V182.678C273.112 181.871 273.008 181.273 272.798 180.884C272.589 180.495 272.305 180.241 271.946 180.121C271.617 180.002 271.243 179.942 270.825 179.942H268.044V179.493H278.226V179.942H275.848C275.43 179.942 275.041 180.017 274.682 180.166C274.353 180.286 274.084 180.555 273.875 180.974C273.665 181.362 273.561 181.99 273.561 182.858V202.28C273.561 204.403 273.142 206.197 272.305 207.663C271.497 209.098 270.286 210.175 268.672 210.892C267.087 211.61 265.128 211.969 262.795 211.969Z" fill="#4B2B42"/>
<path d="M280.203 211.52V211.072H282.042C282.49 211.072 282.879 211.012 283.208 210.892C283.567 210.743 283.851 210.459 284.06 210.04C284.269 209.621 284.374 208.993 284.374 208.156V182.813C284.374 182.005 284.269 181.407 284.06 181.018C283.851 180.6 283.567 180.316 283.208 180.166C282.849 180.017 282.46 179.942 282.042 179.942H280.203V179.493H293.3C297.577 179.493 300.776 180.166 302.899 181.512C305.052 182.858 306.129 184.816 306.129 187.388C306.129 188.913 305.755 190.184 305.008 191.201C304.26 192.217 303.168 192.995 301.733 193.533C300.298 194.071 298.533 194.4 296.44 194.52V194.61C298.803 194.64 300.806 194.969 302.451 195.597C304.096 196.224 305.337 197.151 306.174 198.378C307.041 199.574 307.475 201.084 307.475 202.908C307.475 205.719 306.398 207.857 304.245 209.322C302.092 210.788 298.892 211.52 294.646 211.52H280.203ZM294.422 211.072C296.425 211.072 297.846 210.459 298.683 209.233C299.52 207.977 299.939 205.898 299.939 202.998C299.939 201.054 299.759 199.499 299.401 198.333C299.042 197.166 298.459 196.314 297.651 195.776C296.874 195.238 295.827 194.969 294.511 194.969H291.461V211.072H294.422ZM293.166 194.52C294.481 194.52 295.528 194.281 296.306 193.802C297.113 193.294 297.696 192.501 298.055 191.425C298.414 190.348 298.593 188.943 298.593 187.209C298.593 184.577 298.175 182.708 297.337 181.602C296.5 180.495 295.08 179.942 293.076 179.942H291.461V194.52H293.166Z" fill="#4B2B42"/>
<path d="M310.34 211.52V211.072H312.224C312.672 211.072 313.061 211.012 313.39 210.892C313.749 210.743 314.018 210.459 314.197 210.04C314.407 209.621 314.511 208.993 314.511 208.156V182.858C314.511 181.99 314.407 181.362 314.197 180.974C314.018 180.555 313.749 180.286 313.39 180.166C313.061 180.017 312.672 179.942 312.224 179.942H310.34V179.493H325.815V179.942H323.931C323.512 179.942 323.124 180.002 322.765 180.121C322.436 180.241 322.167 180.495 321.957 180.884C321.748 181.273 321.643 181.871 321.643 182.678V211.072H328.237C330.061 211.072 331.541 210.832 332.678 210.354C333.814 209.875 334.666 209.113 335.235 208.066C335.833 207.02 336.191 205.629 336.311 203.895L336.49 201.517H336.939L336.58 211.52H310.34Z" fill="#4B2B42"/>
<path d="M339.689 211.52V211.072H341.572C341.991 211.072 342.365 211.012 342.694 210.892C343.053 210.773 343.337 210.518 343.546 210.13C343.755 209.741 343.86 209.158 343.86 208.38V182.858C343.86 181.99 343.755 181.362 343.546 180.974C343.367 180.555 343.098 180.286 342.739 180.166C342.41 180.017 342.021 179.942 341.572 179.942H339.689V179.493H364.494L364.763 187.747H364.314L364.18 186.222C364.06 184.697 363.731 183.486 363.193 182.588C362.684 181.661 361.922 180.989 360.905 180.57C359.918 180.151 358.618 179.942 357.003 179.942H350.992V194.565H361.623V195.013H350.992V211.072H358.528C360.113 211.072 361.399 210.862 362.385 210.444C363.402 210.025 364.18 209.352 364.718 208.425C365.256 207.498 365.585 206.272 365.705 204.747L365.839 203.267H366.288L365.974 211.52H339.689Z" fill="#4B2B42"/>
<path d="M357.519 357.007C362.374 359.454 367.532 361.811 373.052 362.04C377.95 362.245 382.532 360.28 386.225 357.141C390.116 353.834 393.751 349.11 393.199 343.711C392.71 338.921 389.52 334.736 385.903 331.77C370.023 318.738 346.745 321.387 329.454 329.804C309.126 339.703 293.629 356.37 276.587 370.766C260.477 384.375 241.333 394.613 220.616 399.796C210.406 402.349 198.845 404.347 188.747 400.282C180.972 397.152 174.452 389.468 174.444 380.81C174.444 378.814 174.764 376.928 175.556 375.091C176.284 373.407 173.875 374.834 173.457 375.14C171.926 376.269 170.455 377.781 169.624 379.511C165.863 387.33 169.028 396.283 175.086 401.977C182.265 408.724 192.891 409.76 202.259 408.719C212.637 407.565 222.976 404.481 232.669 400.679C242.423 396.854 251.786 391.953 260.485 386.111C269.818 379.845 278.306 372.497 286.641 364.982C290.758 361.269 294.856 357.53 299.055 353.91C302.978 350.529 306.466 347.685 310.717 344.618C326.483 333.235 346.174 325.564 365.692 330.862C370.312 332.117 374.738 334.123 378.645 336.901C382.352 339.533 385.999 343.393 386.969 347.981C387.401 350.026 387.324 352.264 386.357 354.151C386.277 354.304 385.963 354.703 386.083 354.585C386.231 354.44 386.379 354.276 386.518 354.123C386.901 353.697 386.089 354.432 386.447 354.181C386.783 353.943 386.042 354.435 386.258 354.309C386.474 354.184 385.826 354.566 385.802 354.583C385.381 354.826 384.952 355.028 384.503 355.217C379.856 357.144 374.697 356.392 370.042 354.889C367.499 354.066 365.039 352.994 362.59 351.936C360.958 351.231 356.887 356.693 357.516 357.01L357.519 357.007Z" fill="#4B2B42"/>
<path d="M183.788 356.995C178.926 359.445 173.76 361.805 168.233 362.035C163.327 362.24 158.738 360.272 155.04 357.129C151.144 353.816 147.503 349.085 148.056 343.679C148.546 338.882 151.741 334.691 155.363 331.72C171.266 318.67 194.577 321.323 211.893 329.752C232.25 339.665 247.77 356.357 264.837 370.773C280.97 384.401 300.142 394.654 320.888 399.845C331.113 402.402 342.691 404.403 352.804 400.332C360.59 397.197 367.119 389.502 367.127 380.831C367.127 378.833 366.807 376.944 366.013 375.104C365.285 373.418 367.697 374.847 368.116 375.154C369.649 376.284 371.122 377.798 371.954 379.531C375.721 387.361 372.551 396.327 366.484 402.029C359.295 408.786 348.653 409.823 339.271 408.78C328.879 407.625 318.525 404.537 308.818 400.729C299.05 396.899 289.673 391.99 280.962 386.14C271.615 379.865 263.115 372.506 254.768 364.98C250.645 361.263 246.541 357.517 242.336 353.893C238.407 350.506 234.914 347.659 230.657 344.587C214.869 333.188 195.149 325.506 175.602 330.811C170.976 332.068 166.543 334.077 162.631 336.859C158.919 339.495 155.267 343.361 154.295 347.955C153.862 350.003 153.939 352.245 154.908 354.134C154.988 354.287 155.303 354.687 155.182 354.569C155.034 354.424 154.886 354.26 154.747 354.106C154.363 353.679 155.177 354.416 154.818 354.164C154.481 353.926 155.223 354.418 155.007 354.292C154.791 354.167 155.439 354.55 155.464 354.566C155.886 354.81 156.315 355.012 156.764 355.201C161.418 357.131 166.584 356.379 171.247 354.873C173.793 354.049 176.257 352.976 178.71 351.916C180.344 351.21 184.42 356.68 183.791 356.997L183.788 356.995Z" fill="#4B2B42"/>
<path d="M305.8 361.468V359.436H297.264C295.368 359.436 293.674 359.165 292.184 358.623C290.558 358.081 289.271 356.929 288.323 355.168C287.374 353.407 286.9 350.765 286.9 347.243V230.797C286.9 227.139 287.374 224.43 288.323 222.668C289.271 220.907 290.558 219.756 292.184 219.214C293.674 218.672 295.368 218.401 297.264 218.401H305.8V216.369H240.363C227.492 216.369 216.992 217.791 208.863 220.636C200.599 223.481 194.502 227.749 190.574 233.439C186.645 238.994 184.68 245.836 184.68 253.964C184.68 261.145 186.103 267.242 188.948 272.254C191.657 277.267 195.315 281.399 199.922 284.651C204.393 287.902 209.338 290.476 214.757 292.373L192.199 330.782C188.406 337.285 185.29 342.501 182.851 346.43C180.277 350.223 178.109 353.068 176.348 354.965C174.587 356.726 173.029 357.946 171.674 358.623C170.319 359.165 168.897 359.436 167.406 359.436H167V361.468H173.706C179.803 361.468 185.154 361.197 189.761 360.655C194.367 360.113 198.431 359.165 201.954 357.81C205.476 356.455 208.66 354.491 211.505 351.917C214.215 349.207 216.721 345.752 219.024 341.552L245.24 293.592H254.791V347.243C254.791 350.765 254.317 353.407 253.369 355.168C252.42 356.929 251.133 358.081 249.508 358.623C247.882 359.165 246.188 359.436 244.427 359.436H235.689V361.468H305.8ZM243.411 291.56C237.585 291.56 232.911 290.341 229.389 287.902C225.731 285.328 223.089 281.331 221.463 275.912C219.702 270.493 218.821 263.516 218.821 254.981C218.821 246.445 219.702 239.536 221.463 234.252C223.224 228.833 225.934 224.836 229.592 222.262C233.25 219.688 237.992 218.401 243.817 218.401H254.791V291.56H243.411Z" fill="#4B2B42"/>
<path d="M237.875 361.468V359.436H246.41C248.307 359.436 250.001 359.165 251.491 358.623C253.117 358.081 254.404 356.929 255.352 355.168C256.3 353.407 256.775 350.765 256.775 347.243V230.797C256.775 227.139 256.3 224.43 255.352 222.668C254.404 220.907 253.117 219.756 251.491 219.214C250.001 218.672 248.307 218.401 246.41 218.401H237.875V216.369H303.312C316.183 216.369 326.682 217.791 334.811 220.636C343.076 223.481 349.172 227.749 353.101 233.439C357.03 238.994 358.994 245.836 358.994 253.964C358.994 261.145 357.572 267.242 354.727 272.254C352.017 277.267 348.359 281.399 343.753 284.651C339.282 287.902 334.337 290.476 328.918 292.373L351.475 330.782C355.269 337.285 358.385 342.501 360.823 346.43C363.398 350.223 365.565 353.068 367.326 354.965C369.088 356.726 370.646 357.946 372.001 358.623C373.355 359.165 374.778 359.436 376.268 359.436H376.675V361.468H369.968C363.872 361.468 358.52 361.197 353.914 360.655C349.308 360.113 345.243 359.165 341.721 357.81C338.198 356.455 335.014 354.491 332.169 351.917C329.46 349.207 326.953 345.752 324.65 341.552L298.435 293.592H288.883V347.243C288.883 350.765 289.358 353.407 290.306 355.168C291.254 356.929 292.541 358.081 294.167 358.623C295.793 359.165 297.486 359.436 299.248 359.436H307.986V361.468H237.875ZM300.264 291.56C306.089 291.56 310.763 290.341 314.286 287.902C317.944 285.328 320.586 281.331 322.212 275.912C323.973 270.493 324.853 263.516 324.853 254.981C324.853 246.445 323.973 239.536 322.212 234.252C320.45 228.833 317.741 224.836 314.083 222.262C310.425 219.688 305.683 218.401 299.857 218.401H288.883V291.56H300.264Z" fill="#4B2B42"/>
<defs>
<filter id="filter0_d_9_12" x="36.582" y="64.6102" width="463.484" height="462.616" filterUnits="userSpaceOnUse" color-interpolation-filters="sRGB">
<feFlood flood-opacity="0" result="BackgroundImageFix"/>
<feColorMatrix in="SourceAlpha" type="matrix" values="0 0 0 0 0 0 0 0 0 0 0 0 0 0 0 0 0 0 127 0" result="hardAlpha"/>
<feOffset dy="2.79347"/>
<feGaussianBlur stdDeviation="6.98367"/>
<feComposite in2="hardAlpha" operator="out"/>
<feColorMatrix type="matrix" values="0 0 0 0 0.4 0 0 0 0 0.367299 0 0 0 0 0.293333 0 0 0 0.12 0"/>
<feBlend mode="normal" in2="BackgroundImageFix" result="effect1_dropShadow_9_12"/>
<feBlend mode="normal" in="SourceGraphic" in2="effect1_dropShadow_9_12" result="shape"/>
</filter>
<linearGradient id="paint0_linear_9_12" x1="51.9105" y1="292.077" x2="484.737" y2="292.077" gradientUnits="userSpaceOnUse">
<stop stop-color="#DABB70"/>
<stop offset="0.505208" stop-color="#C7AB5B"/>
<stop offset="0.958433" stop-color="#F6F099"/>
</linearGradient>
</defs>
</svg>
